<svg height="512" viewBox="0 0 512 512" width="512" xmlns="http://www.w3.org/2000/svg"><g id="filled_outline" data-name="filled outline"><path d="m320 208h-252.495l-3.505 24-40 56 32 28.645v115.355l72 8v48h176v-80l9.961-39.157a382.51 382.51 0 0 0 7.149-153.793z" fill="#f6bb92"/><path d="m368 65.143h-41.143v-41.143h-61.714v41.143h-41.143v61.714h41.143v41.143h61.714v-41.143h41.143z" fill="#eeb436"/><path d="m384 184h32v32h-32z" fill="#f6bb92"/><path d="m384 152v32h32v-11.056a8 8 0 0 0 -4.422-7.155z" fill="#7a4922"/><path d="m384 216-24-24-9.143-32h-30.857l16 48 32 32v56h48v-80z" fill="#dcdbd6"/><path d="m368 296v96l-16 16h48v-72l16 24 40 8 16 16v-48l-40-8-16-32z" fill="#7a4922"/><path d="m304 408h104v24h32v24h32v32h-168z" fill="#c7830b"/><path d="m192 136h-32v-36h-40v36h-32v40h32v32h40v-32h32z" fill="#92d1f7"/><path d="m158.093 265.574 1.062-2.125a8 8 0 0 0 -14.31-7.156l-1.063 2.125a24.569 24.569 0 0 1 -43.951 0l-1.062-2.125a8 8 0 0 0 -14.311 7.156l1.063 2.125a40.569 40.569 0 0 0 72.572 0z"/><path d="m409.344 364.438a8 8 0 0 0 5.087 3.407l37.625 7.525 14.287 14.287a8 8 0 0 0 13.657-5.657v-48a8 8 0 0 0 -6.431-7.845l-36.164-7.232-13.405-26.811v-121.168a15.912 15.912 0 0 0 -8.844-14.31l-27.578-13.789a8 8 0 0 0 -11.578 7.155v44.686l-8.877-8.877-8.573-30.009a8 8 0 0 0 -7.693-5.8h-16v-17.143h33.143a8 8 0 0 0 8-8v-61.714a8 8 0 0 0 -8-8h-33.143v-33.143a8 8 0 0 0 -8-8h-61.714a8 8 0 0 0 -8 8v33.143h-33.143a8 8 0 0 0 -8 8v61.714a8 8 0 0 0 8 8h33.143v33.143a8 8 0 0 0 8 8h51.757l8.794 26.382a7.988 7.988 0 0 0 -5.694-2.382h-152v-16h24a8 8 0 0 0 8-8v-40a8 8 0 0 0 -8-8h-24v-28a8 8 0 0 0 -8-8h-40a8 8 0 0 0 -8 8v28h-24a8 8 0 0 0 -8 8v40a8 8 0 0 0 8 8h24v16h-44.494a8 8 0 0 0 -7.916 6.844l-3.226 22.083-38.874 54.423a8 8 0 0 0 1.174 10.611l29.336 26.26v111.779a8 8 0 0 0 7.116 7.951l64.884 7.209v40.84a8 8 0 0 0 8 8h344a8 8 0 0 0 8-8v-32a8 8 0 0 0 -8-8h-24v-16a8 8 0 0 0 -8-8h-24v-16a8 8 0 0 0 -8-8v-37.578zm-17.344-172.438h16v16h-16zm0-27.056 16 8v3.056h-16zm-39.692 29.256a8.013 8.013 0 0 0 2.035 3.459l24 24a8 8 0 0 0 5.657 2.341h24v64h-32v-48a8 8 0 0 0 -2.343-5.657l-30.665-30.664-11.892-35.679h13.723zm-87.165-75.341h-33.143v-45.716h33.143a8 8 0 0 0 8-8v-33.143h45.714v33.143a8 8 0 0 0 8 8h33.143v45.714h-33.143a8 8 0 0 0 -8 8v25.234a7.956 7.956 0 0 0 -6.845 7.909h-38.869v-33.143a8 8 0 0 0 -8-8zm56.571 251.958a388.328 388.328 0 0 0 7.3-157.01l-.46-2.917a8 8 0 0 0 1.79 2.769l29.656 29.654v145.374l-11.314 11.313h-34.4zm-201.714-202.817h-24v-24h24a8 8 0 0 0 8-8v-28h24v28a8 8 0 0 0 8 8h24v24h-24a8 8 0 0 0 -8 8v24h-24v-24a8 8 0 0 0 -8-8zm8.884 264.049-64.884-7.209v-62.776h16.218a42.089 42.089 0 0 0 29.956-12.407 8 8 0 1 0 -11.315-11.314 26.188 26.188 0 0 1 -18.641 7.721h-16.218v-29.419a8 8 0 0 0 -2.664-5.96l-26.661-23.866 35.835-50.169a8 8 0 0 0 1.406-3.494l2.506-17.156h238.739l.047.294a372.435 372.435 0 0 1 -7 150.577l-9.961 39.157c-.01.039-.013.079-.022.118-.054.227-.1.458-.131.692-.012.079-.027.157-.036.236a7.856 7.856 0 0 0 -.058.926v72h-160v-40a8 8 0 0 0 -7.116-7.951zm303.116 7.951v16a8 8 0 0 0 8 8h24v16h-152v-64h88v16a8 8 0 0 0 8 8zm-25.344-108.438a8 8 0 0 0 -14.656 4.438v64h-20.687l2.344-2.343a8 8 0 0 0 2.343-5.657v-88h35.056l13.789 27.578a8 8 0 0 0 5.586 4.267l33.569 6.714v22.128l-2.343-2.344a8.012 8.012 0 0 0 -4.088-2.188l-36.751-7.35z"/></g></svg>