<?xml version="1.0" encoding="iso-8859-1"?>
<!-- Generator: Adobe Illustrator 19.0.0, SVG Export Plug-In . SVG Version: 6.00 Build 0)  -->
<svg version="1.1" id="Capa_1" xmlns="http://www.w3.org/2000/svg" xmlns:xlink="http://www.w3.org/1999/xlink" x="0px" y="0px"
	 viewBox="0 0 512 512" style="enable-background:new 0 0 512 512;" xml:space="preserve">
<path style="fill:#E9F1F5;" d="M370.306,207.832H141.694c-8.699,0-15.752,7.053-15.752,15.752v71.677
	c0,8.699,7.053,15.752,15.752,15.752h228.611c8.699,0,15.752-7.053,15.752-15.752v-71.677
	C386.058,214.884,379.005,207.832,370.306,207.832z"/>
<path style="fill:#D1E4ED;" d="M370.306,207.832H256v103.182h114.306c8.699,0,15.752-7.053,15.752-15.752v-71.677
	C386.058,214.884,379.005,207.832,370.306,207.832z"/>
<path style="fill:#18658F;" d="M52.192,121.637h-9.909C18.969,121.637,0,140.605,0,163.92v175.801
	c0,23.315,18.969,42.283,42.283,42.283h9.909c23.315,0,42.283-18.969,42.283-42.283V163.92
	C94.475,140.605,75.507,121.637,52.192,121.637z"/>
<g>
	<path style="fill:#144F78;" d="M469.717,129.996h-9.91c-23.314,0-42.283,18.969-42.283,42.283V348.08
		c0,23.315,18.969,42.283,42.283,42.283h9.91c23.314,0,42.283-18.969,42.283-42.283V172.279
		C512,148.965,493.031,129.996,469.717,129.996z"/>
	<path style="fill:#144F78;" d="M115.164,88.942h-9.909c-23.315,0-42.283,18.969-42.283,42.283v241.19
		c0,23.315,18.969,42.283,42.283,42.283h9.909c23.315,0,42.283-18.969,42.283-42.283v-241.19
		C157.446,107.911,138.478,88.942,115.164,88.942z"/>
</g>
<path style="fill:#003357;" d="M406.746,97.301h-9.909c-23.315,0-42.284,18.969-42.284,42.283v241.191
	c0,23.315,18.969,42.283,42.284,42.283h9.909c23.315,0,42.284-18.969,42.284-42.283V139.584
	C449.029,116.27,430.061,97.301,406.746,97.301z"/>
<g>
</g>
<g>
</g>
<g>
</g>
<g>
</g>
<g>
</g>
<g>
</g>
<g>
</g>
<g>
</g>
<g>
</g>
<g>
</g>
<g>
</g>
<g>
</g>
<g>
</g>
<g>
</g>
<g>
</g>
</svg>
