<svg height="511pt" viewBox="-69 0 511 511.99994" width="511pt" xmlns="http://www.w3.org/2000/svg"><path d="m351.136719 329.832031h-15.222657v-43.132812h-45.667968v43.132812h-15.226563v-50.742187c0-4.207032 3.410157-7.613282 7.613281-7.613282h60.890626c4.207031 0 7.613281 3.40625 7.613281 7.613282zm0 0" fill="#353535"/><path d="m99.449219 180.386719c-46.167969 0-83.726563-37.558594-83.726563-83.726563 0-4.203125-3.40625-7.613281-7.609375-7.613281-4.207031 0-7.613281 3.410156-7.613281 7.613281 0 54.5625 44.386719 98.949219 98.964844 98.949219l60.875-.125v-15.222656zm0 0" fill="#696969"/><path d="m221.21875 180.140625-60.878906.121094v15.222656l60.894531-.121094c46.164063 0 83.726563 37.558594 83.726563 83.726563 0 4.203125 3.40625 7.609375 7.609374 7.609375 4.207032 0 7.613282-3.40625 7.613282-7.609375 0-54.5625-44.390625-98.949219-98.964844-98.949219zm0 0" fill="#4f4f4f"/><path d="m122.285156 289.238281v199.511719l-25.242187 8.414062c-3.988281 1.332032-6.140625 5.640626-4.8125 9.628907s5.640625 6.144531 9.628906 4.8125l30.441406-10.148438c3.109375-1.035156 5.207031-3.941406 5.207031-7.21875v-205zm0 0" fill="#4f4f4f"/><path d="m198.398438 289.238281v199.511719l25.238281 8.414062c3.992187 1.332032 6.144531 5.640626 4.816406 9.628907s-5.640625 6.144531-9.628906 4.8125l-30.441407-10.148438c-3.109374-1.035156-5.207031-3.941406-5.207031-7.21875v-205zm0 0" fill="#353535"/><path d="m297.855469 319.683594 45.667969 81.1875h30.449218v-60.890625zm0 0" fill="#353535"/><path d="m252.1875 339.980469v60.890625h91.335938v-81.1875zm0 0" fill="#4f4f4f"/><path d="m343.523438 309.535156-35.519532 15.222656 35.519532 15.222657h30.449218v-30.445313zm0 0" fill="#4f4f4f"/><path d="m252.1875 309.535156h91.335938v30.445313h-91.335938zm0 0" fill="#696969"/><path d="m312.570312 362.816406c-4.203124 0-7.609374-3.410156-7.609374-7.613281v-15.222656c0-4.203125 3.40625-7.613281 7.609374-7.613281 4.207032 0 7.613282 3.410156 7.613282 7.613281v15.222656c0 4.203125-3.40625 7.613281-7.613282 7.613281zm0 0" fill="#fff"/><path d="m129.894531 258.789062 30.445313 76.117188c25.222656 0 45.671875-20.445312 45.671875-45.667969zm0 0" fill="#353535"/><path d="m114.671875 289.238281c0 25.222657 20.445313 45.667969 45.667969 45.667969v-76.117188zm0 0" fill="#4f4f4f"/><path d="m190.789062 167.453125h-22.835937l-17.761719 60.890625 10.148438 60.894531h50.746094zm0 0" fill="#fff0d3"/><path d="m129.894531 167.453125-20.296875 121.785156h50.742188v-111.636719l-7.609375-10.148437zm0 0" fill="#fff"/><path d="m152.730469 167.453125v91.335937c0 4.207032 3.40625 7.613282 7.609375 7.613282 4.207031 0 7.613281-3.40625 7.613281-7.613282v-91.335937zm0 0" fill="#353535"/><path d="m99.449219 187.75v131.933594c16.816406 0 30.445312-13.632813 30.445312-30.445313v-121.785156h-10.148437c-11.210938 0-20.296875 9.085937-20.296875 20.296875zm0 0" fill="#696969"/><path d="m200.9375 167.453125h-10.148438v121.785156c0 16.8125 13.628907 30.445313 30.445313 30.445313v-131.933594c0-11.210938-9.089844-20.296875-20.296875-20.296875zm0 0" fill="#4f4f4f"/><path d="m160.339844 45.667969v91.339843c25.222656 0 45.671875-20.449218 45.671875-45.667968 0-25.222656-20.449219-45.671875-45.671875-45.671875zm0 0" fill="#ffb4a9"/><path d="m175.5625 91.339844c0-25.222656-6.8125-45.671875-15.222656-45.671875-25.222656 0-45.667969 20.449219-45.667969 45.671875 0 25.21875 20.445313 45.667968 45.667969 45.667968 8.410156 0 15.222656-20.449218 15.222656-45.667968zm0 0" fill="#ffd9d4"/><path d="m194.292969 35.539062-2.664063-20.125c-1.152344-8.695312-8.574218-15.414062-17.585937-15.414062-5.515625 0-13.703125 0-13.703125 0l-10.148438 45.6875zm0 0" fill="#808080"/><path d="m160.339844 0s-8.183594 0-13.699219 0c-9.011719 0-16.4375 6.71875-17.589844 15.414062l-2.660156 20.125 33.949219 10.148438zm0 0" fill="#999"/><path d="m194.292969 35.539062h-33.953125l-10.148438 15.222657 10.148438 15.222656h37.980468zm0 0" fill="#353535"/><path d="m126.390625 35.539062-4.027344 30.445313h37.976563v-30.445313zm0 0" fill="#4f4f4f"/><path d="m236.457031 73.578125h-152.230469c-4.203124 0-7.613281-3.40625-7.613281-7.613281 0-4.203125 3.410157-7.609375 7.613281-7.609375h152.230469c4.203125 0 7.609375 3.40625 7.609375 7.609375 0 4.207031-3.40625 7.613281-7.609375 7.613281zm0 0" fill="#808080"/></svg>